<svg xmlns="http://www.w3.org/2000/svg" width="900" height="1100" viewBox="0 0 900 1100" role="img" aria-labelledby="title desc">
  <title id="title">IT support workspace and helpdesk dashboard</title>
  <desc id="desc">Dark futuristic illustration of a laptop helpdesk workspace with headset, server dashboard, chat cards, cloud infrastructure and secure support indicators.</desc>
  <defs>
    <linearGradient id="panel" x1="0" y1="0" x2="1" y2="1">
      <stop offset="0" stop-color="#0b1c36"/>
      <stop offset="1" stop-color="#050b16"/>
    </linearGradient>
    <radialGradient id="glow" cx=".54" cy=".35" r=".58">
      <stop offset="0" stop-color="#63e6ff" stop-opacity=".32"/>
      <stop offset=".48" stop-color="#087cff" stop-opacity=".1"/>
      <stop offset="1" stop-color="#030712" stop-opacity="0"/>
    </radialGradient>
    <filter id="soft">
      <feGaussianBlur stdDeviation="6" result="b"/>
      <feMerge><feMergeNode in="b"/><feMergeNode in="SourceGraphic"/></feMerge>
    </filter>
  </defs>
  <rect width="900" height="1100" rx="54" fill="url(#panel)"/>
  <rect width="900" height="1100" rx="54" fill="url(#glow)"/>
  <g opacity=".2" stroke="#63e6ff">
    <path d="M0 120h900M0 240h900M0 360h900M0 480h900M0 600h900M0 720h900M0 840h900M0 960h900"/>
    <path d="M120 0v1100M240 0v1100M360 0v1100M480 0v1100M600 0v1100M720 0v1100"/>
  </g>
  <g filter="url(#soft)">
    <rect x="132" y="172" width="636" height="382" rx="34" fill="#071326" fill-opacity=".84" stroke="#63e6ff" stroke-opacity=".38" stroke-width="2"/>
    <rect x="180" y="224" width="540" height="62" rx="16" fill="#0d2444" stroke="#63e6ff" stroke-opacity=".22"/>
    <rect x="180" y="330" width="240" height="148" rx="22" fill="#08182e" stroke="#8d68ff" stroke-opacity=".32"/>
    <rect x="468" y="330" width="252" height="148" rx="22" fill="#08182e" stroke="#63e6ff" stroke-opacity=".28"/>
    <path d="M216 370h142M216 408h104M216 446h160" stroke="#63e6ff" stroke-opacity=".82" stroke-width="6" stroke-linecap="round"/>
    <path d="M508 372h152M508 410h90M508 448h138" stroke="#8d68ff" stroke-opacity=".75" stroke-width="6" stroke-linecap="round"/>
    <circle cx="678" cy="256" r="10" fill="#63e6ff"/><circle cx="642" cy="256" r="10" fill="#087cff"/>
  </g>
  <g transform="translate(176 650)" filter="url(#soft)">
    <path d="M80 0h468c44 0 80 36 80 80v220H0V80C0 36 36 0 80 0z" fill="#061020" stroke="#63e6ff" stroke-opacity=".36" stroke-width="2"/>
    <rect x="58" y="52" width="512" height="184" rx="26" fill="#0a1b33"/>
    <path d="M0 300h628l-58 72H58z" fill="#08172c" stroke="#63e6ff" stroke-opacity=".24"/>
    <path d="M96 110h190M96 152h136M96 194h232" stroke="#63e6ff" stroke-width="7" stroke-linecap="round" opacity=".78"/>
    <circle cx="462" cy="148" r="52" fill="none" stroke="#8d68ff" stroke-width="5" opacity=".68"/>
    <path d="M430 150l24 22 44-56" stroke="#63e6ff" stroke-width="7" fill="none"/>
  </g>
  <g fill="none" stroke="#63e6ff" stroke-width="5" stroke-linecap="round" filter="url(#soft)">
    <path d="M206 122c0-62 50-112 112-112s112 50 112 112" opacity=".85"/>
    <path d="M168 122h62v92h-62zM406 122h62v92h-62z" fill="#061020" stroke-opacity=".8"/>
    <path d="M468 198c0 58-54 94-126 94"/>
  </g>
  <g transform="translate(610 78)" filter="url(#soft)" fill="none" stroke="#63e6ff" stroke-width="3">
    <path d="M36 0h130c20 0 36 16 36 36v72c0 20-16 36-36 36H92l-48 42v-42h-8c-20 0-36-16-36-36V36C0 16 16 0 36 0z"/>
    <path d="M44 52h110M44 88h72"/>
  </g>
  <g fill="#63e6ff" opacity=".55">
    <circle cx="92" cy="430" r="6"/><circle cx="806" cy="612" r="5"/><circle cx="746" cy="870" r="6"/><circle cx="108" cy="906" r="4"/>
  </g>
</svg>
