<svg xmlns="http://www.w3.org/2000/svg" width="1800" height="760" viewBox="0 0 1800 760" role="img" aria-labelledby="title desc">
  <title id="title">Futuristic IT support communication background</title>
  <desc id="desc">Dark navy technology scene with a support dashboard, cloud server links, email, phone, chat and location communication icons.</desc>
  <defs>
    <linearGradient id="bg" x1="0" y1="0" x2="1" y2="1">
      <stop offset="0" stop-color="#020712"/>
      <stop offset=".5" stop-color="#071832"/>
      <stop offset="1" stop-color="#030712"/>
    </linearGradient>
    <radialGradient id="cyanGlow" cx=".72" cy=".32" r=".42">
      <stop offset="0" stop-color="#63e6ff" stop-opacity=".34"/>
      <stop offset=".42" stop-color="#087cff" stop-opacity=".12"/>
      <stop offset="1" stop-color="#030712" stop-opacity="0"/>
    </radialGradient>
    <radialGradient id="violetGlow" cx=".18" cy=".7" r=".36">
      <stop offset="0" stop-color="#8d68ff" stop-opacity=".22"/>
      <stop offset=".6" stop-color="#087cff" stop-opacity=".08"/>
      <stop offset="1" stop-color="#030712" stop-opacity="0"/>
    </radialGradient>
    <filter id="glow">
      <feGaussianBlur stdDeviation="5" result="blur"/>
      <feMerge>
        <feMergeNode in="blur"/>
        <feMergeNode in="SourceGraphic"/>
      </feMerge>
    </filter>
    <pattern id="grid" width="60" height="60" patternUnits="userSpaceOnUse">
      <path d="M60 0H0V60" fill="none" stroke="#63e6ff" stroke-opacity=".08" stroke-width="1"/>
    </pattern>
  </defs>
  <rect width="1800" height="760" fill="url(#bg)"/>
  <rect width="1800" height="760" fill="url(#grid)"/>
  <rect width="1800" height="760" fill="url(#cyanGlow)"/>
  <rect width="1800" height="760" fill="url(#violetGlow)"/>
  <g opacity=".45" stroke="#63e6ff" stroke-width="2" fill="none">
    <path d="M116 210C260 164 390 186 510 276S744 406 906 338s318-64 472 42 246 92 350 36" opacity=".5"/>
    <path d="M160 528c140-76 288-74 444 6s306 78 452-6 282-84 408-10 206 78 278 24" opacity=".35"/>
  </g>
  <g transform="translate(1030 176)" filter="url(#glow)">
    <rect x="0" y="0" width="488" height="292" rx="28" fill="#081426" fill-opacity=".74" stroke="#63e6ff" stroke-opacity=".42"/>
    <rect x="34" y="40" width="420" height="42" rx="12" fill="#0d2444" stroke="#63e6ff" stroke-opacity=".25"/>
    <rect x="34" y="112" width="190" height="116" rx="18" fill="#071223" stroke="#8d68ff" stroke-opacity=".35"/>
    <rect x="256" y="112" width="198" height="116" rx="18" fill="#071223" stroke="#63e6ff" stroke-opacity=".3"/>
    <path d="M66 146h118M66 174h82M66 202h132" stroke="#63e6ff" stroke-opacity=".8"/>
    <path d="M292 146h110M292 174h74M292 202h122" stroke="#8d68ff" stroke-opacity=".75"/>
    <circle cx="418" cy="61" r="8" fill="#63e6ff"/>
    <circle cx="388" cy="61" r="8" fill="#087cff"/>
  </g>
  <g transform="translate(315 220)" filter="url(#glow)">
    <rect x="0" y="0" width="330" height="214" rx="28" fill="#061020" fill-opacity=".72" stroke="#63e6ff" stroke-opacity=".36"/>
    <rect x="28" y="36" width="274" height="36" rx="10" fill="#0b1f3b"/>
    <path d="M62 112h86M62 144h156M62 176h116" stroke="#63e6ff" stroke-opacity=".82" stroke-width="3"/>
    <circle cx="262" cy="143" r="34" fill="none" stroke="#8d68ff" stroke-opacity=".7" stroke-width="3"/>
    <path d="M246 143l12 12 26-30" stroke="#63e6ff" stroke-width="4"/>
  </g>
  <g fill="none" stroke="#63e6ff" stroke-opacity=".75" stroke-width="3" filter="url(#glow)">
    <g transform="translate(720 170)">
      <rect width="90" height="62" rx="14"/>
      <path d="M14 18l31 24 31-24"/>
    </g>
    <g transform="translate(805 510)">
      <path d="M45 88s45-34 45-82C90-20 0-20 0 6c0 48 45 82 45 82z"/>
      <circle cx="45" cy="23" r="16"/>
    </g>
    <g transform="translate(1540 500)">
      <path d="M22 4h72c12 0 22 10 22 22v32c0 12-10 22-22 22H58l-28 26v-26h-8C10 80 0 70 0 58V26C0 14 10 4 22 4z"/>
      <path d="M32 38h54M32 56h34"/>
    </g>
    <g transform="translate(157 475)">
      <path d="M23 0h56c13 0 23 10 23 23v56c0 13-10 23-23 23H23C10 102 0 92 0 79V23C0 10 10 0 23 0z"/>
      <path d="M32 28c10 30 24 44 52 53"/>
    </g>
  </g>
  <g fill="#63e6ff" opacity=".55">
    <circle cx="210" cy="172" r="5"/><circle cx="526" cy="560" r="4"/><circle cx="924" cy="202" r="5"/>
    <circle cx="1218" cy="572" r="4"/><circle cx="1624" cy="244" r="5"/><circle cx="1460" cy="134" r="3"/>
  </g>
</svg>
